<?xml version="1.0" encoding="UTF-8" standalone="no"?>
<!-- Created with Inkscape (http://www.inkscape.org/) -->

<svg
   xmlns:dc="http://purl.org/dc/elements/1.1/"
   xmlns:cc="http://creativecommons.org/ns#"
   xmlns:rdf="http://www.w3.org/1999/02/22-rdf-syntax-ns#"
   xmlns:svg="http://www.w3.org/2000/svg"
   xmlns="http://www.w3.org/2000/svg"
   xmlns:sodipodi="http://sodipodi.sourceforge.net/DTD/sodipodi-0.dtd"
   xmlns:inkscape="http://www.inkscape.org/namespaces/inkscape"
   sodipodi:docname="kubo_1.0.0.svg"
   inkscape:version="0.91 r13725"
   version="1.1"
   id="svg6439"
   viewBox="0 0 1024 1024"
   height="1024"
   width="1024">
  <sodipodi:namedview
     inkscape:snap-global="true"
     inkscape:snap-page="true"
     inkscape:snap-text-baseline="true"
     inkscape:snap-center="true"
     inkscape:snap-object-midpoints="true"
     inkscape:snap-midpoints="true"
     inkscape:snap-smooth-nodes="true"
     inkscape:object-nodes="true"
     inkscape:snap-intersection-paths="true"
     inkscape:object-paths="true"
     inkscape:snap-bbox-midpoints="true"
     inkscape:snap-bbox-edge-midpoints="true"
     inkscape:bbox-nodes="true"
     inkscape:bbox-paths="true"
     inkscape:snap-bbox="true"
     inkscape:window-maximized="1"
     inkscape:window-y="25"
     inkscape:window-x="0"
     inkscape:window-height="851"
     inkscape:window-width="1600"
     units="px"
     showgrid="true"
     inkscape:current-layer="layer1"
     inkscape:document-units="px"
     inkscape:cy="508.97489"
     inkscape:cx="333.51846"
     inkscape:zoom="0.33056641"
     inkscape:pageshadow="2"
     inkscape:pageopacity="1"
     borderopacity="1.0"
     bordercolor="#666666"
     pagecolor="#000000"
     id="base">
    <inkscape:grid
       spacingy="64"
       spacingx="64"
       units="px"
       id="grid3395"
       type="xygrid" />
  </sodipodi:namedview>
  <defs
     id="defs6441" />
  <metadata
     id="metadata6444">
    <rdf:RDF>
      <cc:Work
         rdf:about="">
        <dc:format>image/svg+xml</dc:format>
        <dc:type
           rdf:resource="http://purl.org/dc/dcmitype/StillImage" />
        <dc:title></dc:title>
      </cc:Work>
    </rdf:RDF>
  </metadata>
  <g
     transform="translate(0,-28.362161)"
     id="layer1"
     inkscape:groupmode="layer"
     inkscape:label="Tavolo 1">
    <rect
       style="color:#000000;clip-rule:nonzero;display:inline;overflow:visible;visibility:visible;opacity:1;isolation:auto;mix-blend-mode:normal;color-interpolation:sRGB;color-interpolation-filters:linearRGB;solid-color:#000000;solid-opacity:1;fill:#000000;fill-opacity:1;fill-rule:nonzero;stroke:none;stroke-width:13.6789999;stroke-linecap:round;stroke-linejoin:round;stroke-miterlimit:0;stroke-dasharray:none;stroke-dashoffset:0;stroke-opacity:1;color-rendering:auto;image-rendering:auto;shape-rendering:auto;text-rendering:auto;enable-background:accumulate"
       id="rect4197"
       width="1152"
       height="1152"
       x="-64"
       y="-35.63784"
       ry="8.2580605" />
    <g
       id="g7065">
      <path
         id="rect5828"
         d="M837.902736198 759.466707554C837.902736198 759.466707554 729.714939195 806.313384112 729.714939195 806.313384112C726.337563626 807.775830203 721.364651218 807.775839831 718.550153969 806.313384224C718.550153969 806.313384224 628.393729855 759.466734103 628.393729855 759.466734103C625.326604365 757.873009018 625.580260503 755.297615992 628.978619561 753.692307927C628.978619561 753.692307927 738.066807078 702.161511972 738.066807078 702.161511972C741.78576796 700.404758846 747.243730231 700.404747249 750.286535165 702.161511837C750.286535165 702.161511837 839.540428434 753.692281111 839.540428434 753.692281111C842.320921245 755.297599694 841.583263863 757.872992793 837.902736198 759.466707554C837.902736198 759.466707554 837.902736198 759.466707554 837.902736198 759.466707554"
         style="color:#000000;clip-rule:nonzero;display:inline;overflow:visible;visibility:visible;opacity:1;isolation:auto;mix-blend-mode:normal;color-interpolation:sRGB;color-interpolation-filters:linearRGB;solid-color:#000000;solid-opacity:1;fill:#000000;fill-opacity:1;fill-rule:nonzero;stroke:none;stroke-width:13.6789999;stroke-linecap:round;stroke-linejoin:round;stroke-miterlimit:0;stroke-dasharray:none;stroke-dashoffset:0;stroke-opacity:1;color-rendering:auto;image-rendering:auto;shape-rendering:auto;text-rendering:auto;enable-background:accumulate" />
      <path
         id="rect5830"
         d="M738.066807078 702.161511972C738.066807078 702.161511972 628.978619561 753.692307927 628.978619561 753.692307927C625.580260503 755.297615992 620.370278297 755.297626559 617.280841252 753.69230805C617.280841252 753.69230805 518.109829965 702.161541234 518.109829965 702.161541234C514.728934957 700.404776732 514.735370687 697.565405107 518.142071873 695.795231271C518.142071873 695.795231271 627.750844562 638.840843114 627.750844562 638.840843114C631.4962164 636.894690847 637.241084778 636.894677999 640.611940727 638.840842965C640.611940727 638.840842965 739.259764682 695.795201699 739.259764682 695.795201699C742.325815208 697.565387137 741.78576796 700.404758846 738.066807078 702.161511972C738.066807078 702.161511972 738.066807078 702.161511972 738.066807078 702.161511972"
         style="color:#000000;clip-rule:nonzero;display:inline;overflow:visible;visibility:visible;opacity:1;isolation:auto;mix-blend-mode:normal;color-interpolation:sRGB;color-interpolation-filters:linearRGB;solid-color:#000000;solid-opacity:1;fill:#000000;fill-opacity:1;fill-rule:nonzero;stroke:none;stroke-width:13.6789999;stroke-linecap:round;stroke-linejoin:round;stroke-miterlimit:0;stroke-dasharray:none;stroke-dashoffset:0;stroke-opacity:1;color-rendering:auto;image-rendering:auto;shape-rendering:auto;text-rendering:auto;enable-background:accumulate" />
      <path
         id="rect5832"
         d="M627.750822362 638.840830371C627.750822362 638.840830371 518.142049619 695.795219646 518.142049619 695.795219646C514.735348433 697.565393516 509.264561597 697.565405168 505.857838085 695.795219782C505.857838085 695.795219782 396.249122176 638.840862786 396.249122176 638.840862786C392.503725907 636.894697881 392.208119641 633.748578655 395.606065928 631.786773073C395.606065928 631.786773073 505.213240741 568.505028992 505.213240741 568.505028992C508.968182719 566.337111813 515.031794136 566.337097499 518.786760615 568.505028826C518.786760615 568.505028826 628.393878869 631.786740297 628.393878869 631.786740297C631.791847431 633.748558741 631.496194204 636.894678065 627.750822362 638.840830371C627.750822362 638.840830371 627.750822362 638.840830371 627.750822362 638.840830371"
         style="color:#000000;clip-rule:nonzero;display:inline;overflow:visible;visibility:visible;opacity:1;isolation:auto;mix-blend-mode:normal;color-interpolation:sRGB;color-interpolation-filters:linearRGB;solid-color:#000000;solid-opacity:1;fill:#000000;fill-opacity:1;fill-rule:nonzero;stroke:none;stroke-width:13.6789999;stroke-linecap:round;stroke-linejoin:round;stroke-miterlimit:0;stroke-dasharray:none;stroke-dashoffset:0;stroke-opacity:1;color-rendering:auto;image-rendering:auto;shape-rendering:auto;text-rendering:auto;enable-background:accumulate" />
      <path
         id="rect5834"
         d="M717.564167132 811.57482121C717.564167132 811.57482121 618.783168892 854.348235613 618.783168892 854.348235613C615.693559871 855.686075171 610.937083276 855.686083978 608.104923404 854.348235716C608.104923404 854.348235716 517.555663961 811.574813701 517.555663961 811.574813701C514.481062304 810.122441423 514.486382825 807.775854679 517.5823099 806.313408652C517.5823099 806.313408652 616.754366431 759.466769013 616.754366431 759.466769013C620.128256517 757.873019538 625.326530359 757.873043902 628.393655859 759.466768891C628.393655859 759.466768891 718.550080371 806.313416233 718.550080371 806.313416233C721.364577636 807.775871755 720.918329703 810.122426639 717.564167132 811.57482121C717.564167132 811.57482121 717.564167132 811.57482121 717.564167132 811.57482121"
         style="color:#000000;clip-rule:nonzero;display:inline;overflow:visible;visibility:visible;opacity:1;isolation:auto;mix-blend-mode:normal;color-interpolation:sRGB;color-interpolation-filters:linearRGB;solid-color:#000000;solid-opacity:1;fill:#000000;fill-opacity:1;fill-rule:nonzero;stroke:none;stroke-width:13.6789999;stroke-linecap:round;stroke-linejoin:round;stroke-miterlimit:0;stroke-dasharray:none;stroke-dashoffset:0;stroke-opacity:1;color-rendering:auto;image-rendering:auto;shape-rendering:auto;text-rendering:auto;enable-background:accumulate" />
      <path
         id="rect5836"
         d="M616.754366431 759.466769013C616.754366431 759.466769013 517.5823099 806.313408652 517.5823099 806.313408652C514.486382825 807.775854679 509.513472381 807.775864306 506.417524944 806.313408765C506.417524944 806.313408765 407.245443704 759.466760774 407.245443704 759.466760774C403.871605168 757.873035762 403.62962574 755.297642856 406.719042451 753.692334866C406.719042451 753.692334866 505.890028408 702.161579713 505.890028408 702.161579713C509.270975051 700.404788329 514.728860775 700.404815188 518.109755783 702.161579578C518.109755783 702.161579578 617.280767222 753.692343189 617.280767222 753.692343189C620.370204276 755.297661599 620.128256517 757.873019538 616.754366431 759.466769013C616.754366431 759.466769013 616.754366431 759.466769013 616.754366431 759.466769013"
         style="color:#000000;clip-rule:nonzero;display:inline;overflow:visible;visibility:visible;opacity:1;isolation:auto;mix-blend-mode:normal;color-interpolation:sRGB;color-interpolation-filters:linearRGB;solid-color:#000000;solid-opacity:1;fill:#000000;fill-opacity:1;fill-rule:nonzero;stroke:none;stroke-width:13.6789999;stroke-linecap:round;stroke-linejoin:round;stroke-miterlimit:0;stroke-dasharray:none;stroke-dashoffset:0;stroke-opacity:1;color-rendering:auto;image-rendering:auto;shape-rendering:auto;text-rendering:auto;enable-background:accumulate" />
      <path
         id="rect5838"
         d="M505.890006154 702.161568209C505.890006154 702.161568209 406.719020242 753.692324325 406.719020242 753.692324325C403.629603534 755.297632344 398.419623435 755.297642911 395.021242124 753.692324448C395.021242124 753.692324448 285.933111727 702.161559128 285.933111727 702.161559128C282.214126608 700.404794678 281.674123923 697.565423138 284.740154264 695.795249354C284.740154264 695.795249354 383.387952673 638.84090541 383.387952673 638.84090541C386.758860091 636.894710729 392.503651921 636.894740486 396.249048178 638.840905261C396.249048178 638.840905261 505.857763903 695.795258531 505.857763903 695.795258531C509.264487415 697.565443805 509.270952797 700.404776792 505.890006154 702.161568209C505.890006154 702.161568209 505.890006154 702.161568209 505.890006154 702.161568209"
         style="color:#000000;clip-rule:nonzero;display:inline;overflow:visible;visibility:visible;opacity:1;isolation:auto;mix-blend-mode:normal;color-interpolation:sRGB;color-interpolation-filters:linearRGB;solid-color:#000000;solid-opacity:1;fill:#000000;fill-opacity:1;fill-rule:nonzero;stroke:none;stroke-width:13.6789999;stroke-linecap:round;stroke-linejoin:round;stroke-miterlimit:0;stroke-dasharray:none;stroke-dashoffset:0;stroke-opacity:1;color-rendering:auto;image-rendering:auto;shape-rendering:auto;text-rendering:auto;enable-background:accumulate" />
      <path
         id="rect5840"
         d="M607.66622472 859.162012235C607.66622472 859.162012235 517.116170957 898.371324176 517.116170957 898.371324176C514.279057512 899.599829974 509.720962404 899.599838062 506.8838305 898.37132427C506.8838305 898.37132427 416.333827702 859.162034377 416.333827702 859.162034377C413.264577462 857.833010426 413.062853637 855.68603915 415.894995075 854.348199501C415.894995075 854.348199501 506.444305432 811.574750404 506.444305432 811.574750404C509.518887168 810.122387433 514.481197181 810.122377847 517.555798837 811.574750293C517.555798837 811.574750293 608.10505805 854.348177156 608.10505805 854.348177156C610.937217908 855.686025567 610.73545507 857.832996898 607.66622472 859.162012235C607.66622472 859.162012235 607.66622472 859.162012235 607.66622472 859.162012235"
         style="color:#000000;clip-rule:nonzero;display:inline;overflow:visible;visibility:visible;opacity:1;isolation:auto;mix-blend-mode:normal;color-interpolation:sRGB;color-interpolation-filters:linearRGB;solid-color:#000000;solid-opacity:1;fill:#000000;fill-opacity:1;fill-rule:nonzero;stroke:none;stroke-width:13.6789999;stroke-linecap:round;stroke-linejoin:round;stroke-miterlimit:0;stroke-dasharray:none;stroke-dashoffset:0;stroke-opacity:1;color-rendering:auto;image-rendering:auto;shape-rendering:auto;text-rendering:auto;enable-background:accumulate" />
      <path
         id="rect5842"
         d="M506.444305432 811.574750404C506.444305432 811.574750404 415.894995075 854.348199501 415.894995075 854.348199501C413.062853637 855.68603915 408.306378574 855.686047958 405.216749241 854.348199604C405.216749241 854.348199604 306.43572657 811.574774599 306.43572657 811.574774599C303.081615247 810.122402218 302.635334322 807.775815305 305.449813254 806.313369174C305.449813254 806.313369174 395.606288115 759.46669132 395.606288115 759.46669132C398.673393734 757.872976514 403.871739753 757.872965994 407.245578307 759.466691198C407.245578307 759.466691198 506.417659819 806.313344746 506.417659819 806.313344746C509.513607257 807.775800457 509.518887168 810.122387433 506.444305432 811.574750404C506.444305432 811.574750404 506.444305432 811.574750404 506.444305432 811.574750404"
         style="color:#000000;clip-rule:nonzero;display:inline;overflow:visible;visibility:visible;opacity:1;isolation:auto;mix-blend-mode:normal;color-interpolation:sRGB;color-interpolation-filters:linearRGB;solid-color:#000000;solid-opacity:1;fill:#000000;fill-opacity:1;fill-rule:nonzero;stroke:none;stroke-width:13.6789999;stroke-linecap:round;stroke-linejoin:round;stroke-miterlimit:0;stroke-dasharray:none;stroke-dashoffset:0;stroke-opacity:1;color-rendering:auto;image-rendering:auto;shape-rendering:auto;text-rendering:auto;enable-background:accumulate" />
      <g
         id="g5844"
         transform="translate(1649.5483,689.5484)"
         style="fill:#ffcf00;fill-opacity:1">
        <path
           id="rect5846"
           d="M-932.866265779 12.6131390478C-932.866265779 12.6131390478 -1019.53179145 53.8976606959 -1019.53179145 53.8976606959C-1022.96178891 55.5315953362 -1028.2179497 55.5315953921 -1031.3334685 53.8976751273C-1031.3334685 53.8976751273 -1110.05375168 12.6131655388 -1110.05375168 12.6131655388C-1113.40353457 10.8563864944 -1113.34678811 8.01700487017 -1109.90863412 6.24679228301C-1109.90863412 6.24679228301 -1022.90595903 -38.5485343188 -1022.90595903 -38.5485343188C-1019.19818991 -40.4575644562 -1013.5083987 -40.4575661933 -1010.16797361 -38.5485077993C-1010.16797361 -38.5485077993 -931.786196593 6.24680581142 -931.786196593 6.24680581142C-928.688747848 8.01700282934 -929.178444771 10.8563860013 -932.866265779 12.6131390478C-932.866265779 12.6131390478 -932.866265779 12.6131390478 -932.866265779 12.6131390478"
           style="color:#000000;clip-rule:nonzero;display:inline;overflow:visible;visibility:visible;opacity:1;isolation:auto;mix-blend-mode:normal;color-interpolation:sRGB;color-interpolation-filters:linearRGB;solid-color:#000000;solid-opacity:1;fill:#ffcf00;fill-opacity:1;fill-rule:nonzero;stroke:none;stroke-width:1;stroke-linecap:round;stroke-linejoin:round;stroke-miterlimit:0;stroke-dasharray:none;stroke-dashoffset:0;stroke-opacity:1;color-rendering:auto;image-rendering:auto;shape-rendering:auto;text-rendering:auto;enable-background:accumulate" />
        <path
           id="rect5848"
           d="M-951.429398228 122.026411894C-951.429398228 122.026411894 -1029.90093947 156.268398967 -1029.90093947 156.268398967C-1033.0166928 157.62799486 -1037.81163063 157.627994906 -1040.66571056 156.268407998C-1040.66571056 156.268407998 -1112.54734921 122.026432529 -1112.54734921 122.026432529C-1115.59623317 120.574047586 -1115.54933115 118.227454483 -1112.42741289 116.764976446C-1112.42741289 116.764976446 -1033.70258462 79.885941553 -1033.70258462 79.885941553C-1030.35932272 78.319773995 -1025.20611474 78.3197705132 -1022.1642158 79.8859619452C-1022.1642158 79.8859619452 -950.536790571 116.764984421 -950.536790571 116.764984421C-947.69634532 118.227452796 -948.101053184 120.574049086 -951.429398228 122.026411894C-951.429398228 122.026411894 -951.429398228 122.026411894 -951.429398228 122.026411894"
           style="color:#000000;clip-rule:nonzero;display:inline;overflow:visible;visibility:visible;opacity:1;isolation:auto;mix-blend-mode:normal;color-interpolation:sRGB;color-interpolation-filters:linearRGB;solid-color:#000000;solid-opacity:1;fill:#ffcf00;fill-opacity:1;fill-rule:nonzero;stroke:none;stroke-width:1;stroke-linecap:round;stroke-linejoin:round;stroke-miterlimit:0;stroke-dasharray:none;stroke-dashoffset:0;stroke-opacity:1;color-rendering:auto;image-rendering:auto;shape-rendering:auto;text-rendering:auto;enable-background:accumulate" />
        <path
           id="rect5850"
           d="M-1165.04296567 12.6131680614C-1165.04296567 12.6131680614 -1243.76326427 53.8976877578 -1243.76326427 53.8976877578C-1246.87881019 55.5316223223 -1252.13496859 55.531623448 -1255.56494127 53.8977007585C-1255.56494127 53.8977007585 -1342.23044221 12.6131945524 -1342.23044221 12.6131945524C-1345.91831794 10.8564155926 -1346.40801096 8.01703449163 -1343.31053527 6.24682199113C-1343.31053527 6.24682199113 -1264.92874326 -38.5485023755 -1264.92874326 -38.5485023755C-1261.58836795 -40.4575324159 -1255.89857803 -40.4575345709 -1252.19075387 -38.5484762727C-1252.19075387 -38.5484762727 -1165.18810326 6.24683358206 -1165.18810326 6.24683358206C-1161.74997411 8.01703322354 -1161.69323268 10.8564150995 -1165.04296567 12.6131680614C-1165.04296567 12.6131680614 -1165.04296567 12.6131680614 -1165.04296567 12.6131680614"
           style="color:#000000;clip-rule:nonzero;display:inline;overflow:visible;visibility:visible;opacity:1;isolation:auto;mix-blend-mode:normal;color-interpolation:sRGB;color-interpolation-filters:linearRGB;solid-color:#000000;solid-opacity:1;fill:#ffcf00;fill-opacity:1;fill-rule:nonzero;stroke:none;stroke-width:1;stroke-linecap:round;stroke-linejoin:round;stroke-miterlimit:0;stroke-dasharray:none;stroke-dashoffset:0;stroke-opacity:1;color-rendering:auto;image-rendering:auto;shape-rendering:auto;text-rendering:auto;enable-background:accumulate" />
        <path
           id="rect5852"
           d="M-1162.54932953 122.026372792C-1162.54932953 122.026372792 -1234.43099122 156.268362268 -1234.43099122 156.268362268C-1237.28508995 157.627958255 -1242.08002794 157.627958301 -1245.19575412 156.268374275C-1245.19575412 156.268374275 -1323.66727938 122.026394695 -1323.66727938 122.026394695C-1326.99567397 120.574010288 -1327.40037899 118.227415109 -1324.55991504 116.764936968C-1324.55991504 116.764936968 -1252.93246709 79.8858993891 -1252.93246709 79.8858993891C-1249.89061457 78.3197317151 -1244.73740268 78.3197302902 -1241.394091 79.8859211488C-1241.394091 79.8859211488 -1162.66927855 116.764948144 -1162.66927855 116.764948144C-1159.54738748 118.227413423 -1159.50049209 120.57400988 -1162.54932953 122.026372792C-1162.54932953 122.026372792 -1162.54932953 122.026372792 -1162.54932953 122.026372792"
           style="color:#000000;clip-rule:nonzero;display:inline;overflow:visible;visibility:visible;opacity:1;isolation:auto;mix-blend-mode:normal;color-interpolation:sRGB;color-interpolation-filters:linearRGB;solid-color:#000000;solid-opacity:1;fill:#ffcf00;fill-opacity:1;fill-rule:nonzero;stroke:none;stroke-width:1;stroke-linecap:round;stroke-linejoin:round;stroke-miterlimit:0;stroke-dasharray:none;stroke-dashoffset:0;stroke-opacity:1;color-rendering:auto;image-rendering:auto;shape-rendering:auto;text-rendering:auto;enable-background:accumulate" />
      </g>
      <path
         id="rect5854"
         d="M395.606265916 759.466680884C395.606265916 759.466680884 305.449791174 806.313359571 305.449791174 806.313359571C302.635312247 807.775805728 297.662403434 807.775815355 294.285005743 806.313359684C294.285005743 806.313359684 186.09726493 759.466707432 186.09726493 759.466707432C182.416713254 757.872982273 181.679098473 755.297589127 184.459573196 753.692280988C184.459573196 753.692280988 273.713516998 702.161482575 273.713516998 702.161482575C276.75630223 700.404729363 282.21426017 700.404717767 285.933245331 702.16148244C285.933245331 702.16148244 395.02137666 753.692254171 395.02137666 753.692254171C398.41975799 755.29757283 398.673371533 757.872966048 395.606265916 759.466680884C395.606265916 759.466680884 395.606265916 759.466680884 395.606265916 759.466680884"
         style="color:#000000;clip-rule:nonzero;display:inline;overflow:visible;visibility:visible;opacity:1;isolation:auto;mix-blend-mode:normal;color-interpolation:sRGB;color-interpolation-filters:linearRGB;solid-color:#000000;solid-opacity:1;fill:#000000;fill-opacity:1;fill-rule:nonzero;stroke:none;stroke-width:13.6789999;stroke-linecap:round;stroke-linejoin:round;stroke-miterlimit:0;stroke-dasharray:none;stroke-dashoffset:0;stroke-opacity:1;color-rendering:auto;image-rendering:auto;shape-rendering:auto;text-rendering:auto;enable-background:accumulate" />
      <g
         id="g5856"
         transform="translate(1649.5483,689.5484)"
         style="fill:#efefef;fill-opacity:1">
        <path
           id="rect5858"
           d="M-832.014560461 69.9183321194C-832.014560461 69.9183321194 -917.990492352 107.434948994 -917.990492352 107.434948994C-921.398957145 108.922273004 -926.413924257 108.922273054 -929.2498982 107.434958874C-929.2498982 107.434958874 -1000.78563228 69.918354762 -1000.78563228 69.918354762C-1003.8245344 68.3246157804 -1003.52524098 65.7492157765 -1000.09835173 64.1438725728C-1000.09835173 64.1438725728 -913.539400665 23.594904139 -913.539400665 23.594904139C-909.857310811 21.8700109487 -904.449089604 21.8700071138 -901.430866416 23.5949265963C-901.430866416 23.5949265963 -830.479267426 64.1438813266 -830.479267426 64.1438813266C-827.67029453 65.7492139256 -828.362282688 68.3246174262 -832.014560461 69.9183321194C-832.014560461 69.9183321194 -832.014560461 69.9183321194 -832.014560461 69.9183321194"
           style="color:#000000;clip-rule:nonzero;display:inline;overflow:visible;visibility:visible;opacity:1;isolation:auto;mix-blend-mode:normal;color-interpolation:sRGB;color-interpolation-filters:linearRGB;solid-color:#000000;solid-opacity:1;fill:#efefef;fill-opacity:1;fill-rule:nonzero;stroke:none;stroke-width:1;stroke-linecap:round;stroke-linejoin:round;stroke-miterlimit:0;stroke-dasharray:none;stroke-dashoffset:0;stroke-opacity:1;color-rendering:auto;image-rendering:auto;shape-rendering:auto;text-rendering:auto;enable-background:accumulate" />
        <path
           id="rect5860"
           d="M-1044.30463362 -50.7075273181C-1044.30463362 -50.7075273181 -1131.34892589 -5.05752518843 -1131.34892589 -5.05752518843C-1134.78749347 -3.25418331119 -1140.30921818 -3.25418206882 -1143.74776093 -5.05751083875C-1143.74776093 -5.05751083875 -1230.79202887 -50.7074979733 -1230.79202887 -50.7074979733C-1234.50295868 -52.653678948 -1234.74281809 -55.7998087631 -1231.31002231 -57.761657254C-1231.31002231 -57.761657254 -1144.26656321 -107.507138755 -1144.26656321 -107.507138755C-1140.54950119 -109.631445872 -1134.54721645 -109.63144827 -1130.83009924 -107.507109711C-1130.83009924 -107.507109711 -1043.78666423 -57.7616444073 -1043.78666423 -57.7616444073C-1040.35389322 -55.7998101684 -1040.5937589 -52.6536794942 -1044.30463362 -50.7075273181C-1044.30463362 -50.7075273181 -1044.30463362 -50.7075273181 -1044.30463362 -50.7075273181"
           style="color:#000000;clip-rule:nonzero;display:inline;overflow:visible;visibility:visible;opacity:1;isolation:auto;mix-blend-mode:normal;color-interpolation:sRGB;color-interpolation-filters:linearRGB;solid-color:#000000;solid-opacity:1;fill:#efefef;fill-opacity:1;fill-rule:nonzero;stroke:none;stroke-width:1;stroke-linecap:round;stroke-linejoin:round;stroke-miterlimit:0;stroke-dasharray:none;stroke-dashoffset:0;stroke-opacity:1;color-rendering:auto;image-rendering:auto;shape-rendering:auto;text-rendering:auto;enable-background:accumulate" />
        <path
           id="rect5862"
           d="M-1053.16285138 69.91835879C-1053.16285138 69.91835879 -1131.91869121 107.434973951 -1131.91869121 107.434973951C-1135.04091974 108.922297894 -1140.05588673 108.922297945 -1143.17808807 107.434987087C-1143.17808807 107.434987087 -1221.933912 69.9183828241 -1221.933912 69.9183828241C-1225.27952838 68.3246446181 -1225.47587626 65.749242641 -1222.35793612 64.1438995122C-1222.35793612 64.1438995122 -1143.60265457 23.5949330033 -1143.60265457 23.5949330033C-1140.25252129 21.8700398964 -1134.84429655 21.870038327 -1131.49411337 23.5949569666C-1131.49411337 23.5949569666 -1052.73884726 64.1439117798 -1052.73884726 64.1439117798C-1049.62093426 65.7492407901 -1049.81728482 68.3246441709 -1053.16285138 69.91835879C-1053.16285138 69.91835879 -1053.16285138 69.91835879 -1053.16285138 69.91835879"
           style="color:#000000;clip-rule:nonzero;display:inline;overflow:visible;visibility:visible;opacity:1;isolation:auto;mix-blend-mode:normal;color-interpolation:sRGB;color-interpolation-filters:linearRGB;solid-color:#000000;solid-opacity:1;fill:#efefef;fill-opacity:1;fill-rule:nonzero;stroke:none;stroke-width:1;stroke-linecap:round;stroke-linejoin:round;stroke-miterlimit:0;stroke-dasharray:none;stroke-dashoffset:0;stroke-opacity:1;color-rendering:auto;image-rendering:auto;shape-rendering:auto;text-rendering:auto;enable-background:accumulate" />
        <path
           id="rect5864"
           d="M-1060.48389188 169.613632722C-1060.48389188 169.613632722 -1132.39242452 200.991773204 -1132.39242452 200.991773204C-1135.25161532 202.239415 -1139.84501998 202.239415042 -1142.70419194 200.991781491C-1142.70419194 200.991781491 -1214.61270138 169.613651606 -1214.61270138 169.613651606C-1217.65842033 168.284616065 -1217.82210096 166.137638971 -1214.9661829 164.799770041C-1214.9661829 164.799770041 -1143.058038 131.114044168 -1143.058038 131.114044168C-1140.00889938 129.68566011 -1135.08773806 129.685656935 -1132.03855291 131.114062767C-1132.03855291 131.114062767 -1060.1304312 164.799777335 -1060.1304312 164.799777335C-1057.27453197 166.137637428 -1057.4382194 168.284617437 -1060.48389188 169.613632722C-1060.48389188 169.613632722 -1060.48389188 169.613632722 -1060.48389188 169.613632722"
           style="color:#000000;clip-rule:nonzero;display:inline;overflow:visible;visibility:visible;opacity:1;isolation:auto;mix-blend-mode:normal;color-interpolation:sRGB;color-interpolation-filters:linearRGB;solid-color:#000000;solid-opacity:1;fill:#efefef;fill-opacity:1;fill-rule:nonzero;stroke:none;stroke-width:1;stroke-linecap:round;stroke-linejoin:round;stroke-miterlimit:0;stroke-dasharray:none;stroke-dashoffset:0;stroke-opacity:1;color-rendering:auto;image-rendering:auto;shape-rendering:auto;text-rendering:auto;enable-background:accumulate" />
        <path
           id="rect5866"
           d="M-1274.31100012 69.9183155372C-1274.31100012 69.9183155372 -1345.84675707 107.434933477 -1345.84675707 107.434933477C-1348.68274969 108.922257528 -1353.69771462 108.922258553 -1357.10615479 107.43494531C-1357.10615479 107.43494531 -1443.08206247 69.9183395713 -1443.08206247 69.9183395713C-1446.73439446 68.3246012452 -1447.42637857 65.7491994242 -1444.61738717 64.143856175C-1444.61738717 64.143856175 -1373.66576562 23.5948865694 -1373.66576562 23.5948865694C-1370.64758849 21.8699933284 -1365.23936465 21.8699913814 -1361.55722014 23.5949101562C-1361.55722014 23.5949101562 -1274.99829334 64.1438666856 -1274.99829334 64.1438666856C-1271.57142885 65.7491982741 -1271.27214437 68.324600798 -1274.31100012 69.9183155372C-1274.31100012 69.9183155372 -1274.31100012 69.9183155372 -1274.31100012 69.9183155372"
           style="color:#000000;clip-rule:nonzero;display:inline;overflow:visible;visibility:visible;opacity:1;isolation:auto;mix-blend-mode:normal;color-interpolation:sRGB;color-interpolation-filters:linearRGB;solid-color:#000000;solid-opacity:1;fill:#efefef;fill-opacity:1;fill-rule:nonzero;stroke:none;stroke-width:1;stroke-linecap:round;stroke-linejoin:round;stroke-miterlimit:0;stroke-dasharray:none;stroke-dashoffset:0;stroke-opacity:1;color-rendering:auto;image-rendering:auto;shape-rendering:auto;text-rendering:auto;enable-background:accumulate" />
      </g>
    </g>
    <g
       id="g7021">
      <path
         id="rect5868"
         d="M180.277568273 749.386735507C180.277568273 749.386735507 193.80105621 632.270015642 193.80105621 632.270015642C194.223228567 628.613899564 196.709676488 624.307226305 199.38344885 622.601028019C199.38344885 622.601028019 285.032051546 567.946599987 285.032051546 567.946599987C287.945820774 566.087253943 290.049348543 567.594623115 289.740406571 571.340342421C289.740406571 571.340342421 279.823290798 691.578883414 279.823290798 691.578883414C279.485203175 695.677974671 276.756231978 700.404714515 273.713426638 702.161478577C273.713426638 702.161478577 184.459522157 753.692232023 184.459522157 753.692232023C181.679029018 755.297550101 179.817501857 753.371023423 180.277568273 749.386735507C180.277568273 749.386735507 180.277568273 749.386735507 180.277568273 749.386735507"
         style="color:#000000;clip-rule:nonzero;display:inline;overflow:visible;visibility:visible;opacity:1;isolation:auto;mix-blend-mode:normal;color-interpolation:sRGB;color-interpolation-filters:linearRGB;solid-color:#000000;solid-opacity:1;fill:#000000;fill-opacity:1;fill-rule:nonzero;stroke:none;stroke-width:13.6789999;stroke-linecap:round;stroke-linejoin:round;stroke-miterlimit:0;stroke-dasharray:none;stroke-dashoffset:0;stroke-opacity:1;color-rendering:auto;image-rendering:auto;shape-rendering:auto;text-rendering:auto;enable-background:accumulate" />
      <path
         id="rect5870"
         d="M279.82330412 691.578875678C279.82330412 691.578875678 289.740419384 571.340334284 289.740419384 571.340334284C290.04936134 567.594614966 292.654336968 563.082636805 295.589308619 561.209760987C295.589308619 561.209760987 389.801768231 501.090530414 389.801768231 501.090530414C393.013619991 499.040970756 395.469368849 500.466230941 395.299033816 504.301607643C395.299033816 504.301607643 389.81859597 627.702785365 389.81859597 627.702785365C389.631327403 631.91944878 386.758905678 636.894656442 383.388047708 638.840821733C383.388047708 638.840821733 284.740212022 695.79516259 284.740212022 695.79516259C281.674154352 697.565351388 279.485216514 695.677966949 279.82330412 691.578875678C279.82330412 691.578875678 279.82330412 691.578875678 279.82330412 691.578875678"
         style="color:#000000;clip-rule:nonzero;display:inline;overflow:visible;visibility:visible;opacity:1;isolation:auto;mix-blend-mode:normal;color-interpolation:sRGB;color-interpolation-filters:linearRGB;solid-color:#000000;solid-opacity:1;fill:#000000;fill-opacity:1;fill-rule:nonzero;stroke:none;stroke-width:13.6789999;stroke-linecap:round;stroke-linejoin:round;stroke-miterlimit:0;stroke-dasharray:none;stroke-dashoffset:0;stroke-opacity:1;color-rendering:auto;image-rendering:auto;shape-rendering:auto;text-rendering:auto;enable-background:accumulate" />
      <path
         id="rect5872"
         d="M389.818598922 627.702783651C389.818598922 627.702783651 395.299036642 504.301605848 395.299036642 504.301605848C395.469371671 500.466229144 398.204753658 495.728383832 401.441142454 493.663166502C401.441142454 493.663166502 505.56942339 427.216412469 505.56942339 427.216412469C509.127552288 424.945885062 511.999974809 426.262942092 511.999975217 430.18655269C511.999975217 430.18655269 511.999988362 556.750024354 511.999988362 556.750024354C511.999988812 561.085858208 508.968195363 566.337107031 505.213225806 568.505039197C505.213225806 568.505039197 395.60609221 631.786732139 395.60609221 631.786732139C392.208121669 633.748550876 389.631330359 631.919447069 389.818598922 627.702783651C389.818598922 627.702783651 389.818598922 627.702783651 389.818598922 627.702783651"
         style="color:#000000;clip-rule:nonzero;display:inline;overflow:visible;visibility:visible;opacity:1;isolation:auto;mix-blend-mode:normal;color-interpolation:sRGB;color-interpolation-filters:linearRGB;solid-color:#000000;solid-opacity:1;fill:#000000;fill-opacity:1;fill-rule:nonzero;stroke:none;stroke-width:13.6789999;stroke-linecap:round;stroke-linejoin:round;stroke-miterlimit:0;stroke-dasharray:none;stroke-dashoffset:0;stroke-opacity:1;color-rendering:auto;image-rendering:auto;shape-rendering:auto;text-rendering:auto;enable-background:accumulate" />
      <path
         id="rect5874"
         d="M195.319904195 619.116419852C195.319904195 619.116419852 207.667540852 512.182860245 207.667540852 512.182860245C208.053742347 508.838260646 210.431973043 504.719026763 213.006663566 502.935228522C213.006663566 502.935228522 295.324164029 445.903980976 295.324164029 445.903980976C298.119256185 443.967483976 300.14879969 445.14538499 299.867351562 448.557759418C299.867351562 448.557759418 290.851703172 557.866598142 290.851703172 557.866598142C290.544985654 561.585347396 287.945827566 566.08717241 285.032058417 567.94651851C285.032058417 567.94651851 199.383457929 622.600948277 199.383457929 622.600948277C196.709685632 624.307146619 194.900633466 622.747407118 195.319904195 619.116419852C195.319904195 619.116419852 195.319904195 619.116419852 195.319904195 619.116419852"
         style="color:#000000;clip-rule:nonzero;display:inline;overflow:visible;visibility:visible;opacity:1;isolation:auto;mix-blend-mode:normal;color-interpolation:sRGB;color-interpolation-filters:linearRGB;solid-color:#000000;solid-opacity:1;fill:#000000;fill-opacity:1;fill-rule:nonzero;stroke:none;stroke-width:13.6789999;stroke-linecap:round;stroke-linejoin:round;stroke-miterlimit:0;stroke-dasharray:none;stroke-dashoffset:0;stroke-opacity:1;color-rendering:auto;image-rendering:auto;shape-rendering:auto;text-rendering:auto;enable-background:accumulate" />
      <path
         id="rect5876"
         d="M290.851715927 557.866589964C290.851715927 557.866589964 299.86736385 448.557750938 299.86736385 448.557750938C300.148811963 445.145376501 302.635252753 440.838709211 305.449756342 438.888763573C305.449756342 438.888763573 395.606183895 376.426547049 395.606183895 376.426547049C398.673310967 374.301578697 401.024655152 375.379715647 400.870184345 378.85788292C400.870184345 378.85788292 395.911635893 490.507852499 395.911635893 490.507852499C395.742588588 494.314233878 393.013623778 499.040887285 389.801772115 501.090447C389.801772115 501.090447 295.589315203 561.209679306 295.589315203 561.209679306C292.654343633 563.08255518 290.544998425 561.585339229 290.851715927 557.866589964C290.851715927 557.866589964 290.851715927 557.866589964 290.851715927 557.866589964"
         style="color:#000000;clip-rule:nonzero;display:inline;overflow:visible;visibility:visible;opacity:1;isolation:auto;mix-blend-mode:normal;color-interpolation:sRGB;color-interpolation-filters:linearRGB;solid-color:#000000;solid-opacity:1;fill:#000000;fill-opacity:1;fill-rule:nonzero;stroke:none;stroke-width:13.6789999;stroke-linecap:round;stroke-linejoin:round;stroke-miterlimit:0;stroke-dasharray:none;stroke-dashoffset:0;stroke-opacity:1;color-rendering:auto;image-rendering:auto;shape-rendering:auto;text-rendering:auto;enable-background:accumulate" />
      <path
         id="rect5878"
         d="M395.911638705 490.507850697C395.911638705 490.507850697 400.870187043 378.857881058 400.870187043 378.857881058C401.024657847 375.379713784 403.629637432 370.867734376 406.719076077 368.727308109C406.719076077 368.727308109 505.890094621 300.019598617 505.890094621 300.019598617C509.270992164 297.677243666 511.999961553 298.629273273 511.999961921 302.169620236C511.999961921 302.169620236 511.999973752 416.078290065 511.999973752 416.078290065C511.999974156 419.970678857 509.127552384 424.945799686 505.569423605 427.216327147C505.569423605 427.216327147 401.441145987 493.663082884 401.441145987 493.663082884C398.204757288 495.72830027 395.742591403 494.314232078 395.911638705 490.507850697C395.911638705 490.507850697 395.911638705 490.507850697 395.911638705 490.507850697"
         style="color:#000000;clip-rule:nonzero;display:inline;overflow:visible;visibility:visible;opacity:1;isolation:auto;mix-blend-mode:normal;color-interpolation:sRGB;color-interpolation-filters:linearRGB;solid-color:#000000;solid-opacity:1;fill:#000000;fill-opacity:1;fill-rule:nonzero;stroke:none;stroke-width:13.6789999;stroke-linecap:round;stroke-linejoin:round;stroke-miterlimit:0;stroke-dasharray:none;stroke-dashoffset:0;stroke-opacity:1;color-rendering:auto;image-rendering:auto;shape-rendering:auto;text-rendering:auto;enable-background:accumulate" />
      <path
         id="rect5880"
         d="M209.057160195 500.148416164C209.057160195 500.148416164 220.375927571 402.125116689 220.375927571 402.125116689C220.730567082 399.053851607 223.009607633 395.106421537 225.492097721 393.263650156C225.492097721 393.263650156 304.723340145 334.44969289 304.723340145 334.44969289C307.408933779 332.456156194 309.369127371 333.354943767 309.111659779 336.476569885C309.111659779 336.476569885 300.879898185 436.281294023 300.879898185 436.281294023C300.600390544 439.670141313 298.119243806 443.96763257 295.324151505 445.904129486C295.324151505 445.904129486 213.006646958 502.935374409 213.006646958 502.935374409C210.431956313 504.719172564 208.673506037 503.470955202 209.057160195 500.148416164C209.057160195 500.148416164 209.057160195 500.148416164 209.057160195 500.148416164"
         style="color:#000000;clip-rule:nonzero;display:inline;overflow:visible;visibility:visible;opacity:1;isolation:auto;mix-blend-mode:normal;color-interpolation:sRGB;color-interpolation-filters:linearRGB;solid-color:#000000;solid-opacity:1;fill:#000000;fill-opacity:1;fill-rule:nonzero;stroke:none;stroke-width:13.6789999;stroke-linecap:round;stroke-linejoin:round;stroke-miterlimit:0;stroke-dasharray:none;stroke-dashoffset:0;stroke-opacity:1;color-rendering:auto;image-rendering:auto;shape-rendering:auto;text-rendering:auto;enable-background:accumulate" />
      <path
         id="rect5882"
         d="M300.87991042 436.281285513C300.87991042 436.281285513 309.111671583 336.476561152 309.111671583 336.476561152C309.369139162 333.354935028 311.747363184 329.235706863 314.450794457 327.228929151C314.450794457 327.228929151 400.884177187 263.068768049 400.884177187 263.068768049C403.819025587 260.890207634 406.074368743 261.677011277 405.933644825 264.845644453C405.933644825 264.845644453 401.42582196 366.346777419 401.42582196 366.346777419C401.272466707 369.799826122 398.673304096 374.301730136 395.606176847 376.426698407C395.606176847 376.426698407 305.449744346 438.888912388 305.449744346 438.888912388C302.63524061 440.838857941 300.600402794 439.670132811 300.87991042 436.281285513C300.87991042 436.281285513 300.87991042 436.281285513 300.87991042 436.281285513"
         style="color:#000000;clip-rule:nonzero;display:inline;overflow:visible;visibility:visible;opacity:1;isolation:auto;mix-blend-mode:normal;color-interpolation:sRGB;color-interpolation-filters:linearRGB;solid-color:#000000;solid-opacity:1;fill:#000000;fill-opacity:1;fill-rule:nonzero;stroke:none;stroke-width:13.6789999;stroke-linecap:round;stroke-linejoin:round;stroke-miterlimit:0;stroke-dasharray:none;stroke-dashoffset:0;stroke-opacity:1;color-rendering:auto;image-rendering:auto;shape-rendering:auto;text-rendering:auto;enable-background:accumulate" />
      <g
         id="g5884"
         transform="translate(1073.5483,-14.451621)"
         style="fill:#003f7f;fill-opacity:1">
        <path
           id="rect5886"
           d="M-783.032639795 687.510730552C-783.032639795 687.510730552 -775.453321457 591.813921615 -775.453321457 591.813921615C-775.153351634 588.026489344 -772.52527121 583.474520533 -769.55249525 581.593362225C-769.55249525 581.593362225 -694.438916552 534.061851448 -694.438916552 534.061851448C-691.242609677 532.039243854 -688.812006137 533.508078524 -688.99803402 537.370713528C-688.99803402 537.370713528 -693.705479842 635.114905128 -693.705479842 635.114905128C-693.90609577 639.280442554 -696.750989999 644.207947265 -700.074495801 646.146311079C-700.074495801 646.146311079 -778.05926784 691.629264691 -778.05926784 691.629264691C-781.141027936 693.426635483 -783.355157537 691.582853845 -783.032639795 687.510730552C-783.032639795 687.510730552 -783.032639795 687.510730552 -783.032639795 687.510730552"
           style="color:#000000;clip-rule:nonzero;display:inline;overflow:visible;visibility:visible;opacity:1;isolation:auto;mix-blend-mode:normal;color-interpolation:sRGB;color-interpolation-filters:linearRGB;solid-color:#000000;solid-opacity:1;fill:#003f7f;fill-opacity:1;fill-rule:nonzero;stroke:none;stroke-width:1;stroke-linecap:round;stroke-linejoin:round;stroke-miterlimit:0;stroke-dasharray:none;stroke-dashoffset:0;stroke-opacity:1;color-rendering:auto;image-rendering:auto;shape-rendering:auto;text-rendering:auto;enable-background:accumulate" />
        <path
           id="rect5888"
           d="M-868.505749596 616.727948471C-868.505749596 616.727948471 -858.924409045 531.648607809 -858.924409045 531.648607809C-858.543976942 528.270488398 -856.146508031 524.117950472 -853.542031243 522.326038218C-853.542031243 522.326038218 -787.94679036 477.195700915 -787.94679036 477.195700915C-785.164546071 475.281482421 -783.155787796 476.495397251 -783.45020379 479.930296717C-783.45020379 479.930296717 -790.874436859 566.547514347 -790.874436859 566.547514347C-791.189726918 570.225947846 -793.766327961 574.688758604 -796.643639082 576.540024657C-796.643639082 576.540024657 -864.395523545 620.131683115 -864.395523545 620.131683115C-867.082280981 621.860346657 -868.91213906 620.33656122 -868.505749596 616.727948471C-868.505749596 616.727948471 -868.505749596 616.727948471 -868.505749596 616.727948471"
           style="color:#000000;clip-rule:nonzero;display:inline;overflow:visible;visibility:visible;opacity:1;isolation:auto;mix-blend-mode:normal;color-interpolation:sRGB;color-interpolation-filters:linearRGB;solid-color:#000000;solid-opacity:1;fill:#003f7f;fill-opacity:1;fill-rule:nonzero;stroke:none;stroke-width:1;stroke-linecap:round;stroke-linejoin:round;stroke-miterlimit:0;stroke-dasharray:none;stroke-dashoffset:0;stroke-opacity:1;color-rendering:auto;image-rendering:auto;shape-rendering:auto;text-rendering:auto;enable-background:accumulate" />
        <path
           id="rect5890"
           d="M-666.94431086 486.439793578C-666.94431086 486.439793578 -663.337605553 397.623756348 -663.337605553 397.623756348C-663.194861482 394.108647227 -660.566783198 389.556679982 -657.436778183 387.403197806C-657.436778183 387.403197806 -578.350593106 332.990923981 -578.350593106 332.990923981C-574.985239864 330.675519313 -572.281416986 331.671123146 -572.297105744 335.23872195C-572.297105744 335.23872195 -572.694110646 425.517006158 -572.694110646 425.517006158C-572.711029695 429.36437105 -575.555922889 434.291874805 -579.063128169 436.548415651C-579.063128169 436.548415651 -661.358334308 489.497267883 -661.358334308 489.497267883C-664.610436903 491.5896753 -667.097784615 490.21912392 -666.94431086 486.439793578C-666.94431086 486.439793578 -666.94431086 486.439793578 -666.94431086 486.439793578"
           style="color:#000000;clip-rule:nonzero;display:inline;overflow:visible;visibility:visible;opacity:1;isolation:auto;mix-blend-mode:normal;color-interpolation:sRGB;color-interpolation-filters:linearRGB;solid-color:#000000;solid-opacity:1;fill:#003f7f;fill-opacity:1;fill-rule:nonzero;stroke:none;stroke-width:1;stroke-linecap:round;stroke-linejoin:round;stroke-miterlimit:0;stroke-dasharray:none;stroke-dashoffset:0;stroke-opacity:1;color-rendering:auto;image-rendering:auto;shape-rendering:auto;text-rendering:auto;enable-background:accumulate" />
        <path
           id="rect5892"
           d="M-762.945748068 433.892746176C-762.945748068 433.892746176 -756.659350256 354.520409049 -756.659350256 354.520409049C-756.409745566 351.36888918 -754.012276597 347.216351152 -751.276979167 345.197845133C-751.276979167 345.197845133 -682.386791165 294.360500127 -682.386791165 294.360500127C-679.464792011 292.204218029 -677.230228381 293.027030655 -677.383917097 296.21818353C-677.383917097 296.21818353 -681.259456709 376.688889024 -681.259456709 376.688889024C-681.42404194 380.10629433 -684.000646697 384.569107408 -687.028663702 386.68140486C-687.028663702 386.68140486 -758.329246032 436.419579425 -758.329246032 436.419579425C-761.156723707 438.391983767 -763.2123836 437.259298217 -762.945748068 433.892746176C-762.945748068 433.892746176 -762.945748068 433.892746176 -762.945748068 433.892746176"
           style="color:#000000;clip-rule:nonzero;display:inline;overflow:visible;visibility:visible;opacity:1;isolation:auto;mix-blend-mode:normal;color-interpolation:sRGB;color-interpolation-filters:linearRGB;solid-color:#000000;solid-opacity:1;fill:#003f7f;fill-opacity:1;fill-rule:nonzero;stroke:none;stroke-width:1;stroke-linecap:round;stroke-linejoin:round;stroke-miterlimit:0;stroke-dasharray:none;stroke-dashoffset:0;stroke-opacity:1;color-rendering:auto;image-rendering:auto;shape-rendering:auto;text-rendering:auto;enable-background:accumulate" />
      </g>
      <path
         id="rect5894"
         d="M401.425824645 366.346775552C401.425824645 366.346775552 405.933647406 264.845642544 405.933647406 264.845642544C406.07437132 261.677009366 408.560816105 257.370340264 411.516040038 255.176654935C411.516040038 255.176654935 506.180301663 184.906649474 506.180301663 184.906649474C509.400786164 182.516059196 511.999949561 183.164962465 511.999949895 186.375578117C511.999949895 186.375578117 511.999960599 289.437155982 511.999960599 289.437155982C511.999960964 292.950661797 509.27099199 297.67739779 505.890094232 300.019752665C505.890094232 300.019752665 406.71906967 368.727459759 406.71906967 368.727459759C403.629630846 370.867885944 401.272469396 369.799824256 401.425824645 366.346775552C401.425824645 366.346775552 401.425824645 366.346775552 401.425824645 366.346775552"
         style="color:#000000;clip-rule:nonzero;display:inline;overflow:visible;visibility:visible;opacity:1;isolation:auto;mix-blend-mode:normal;color-interpolation:sRGB;color-interpolation-filters:linearRGB;solid-color:#000000;solid-opacity:1;fill:#000000;fill-opacity:1;fill-rule:nonzero;stroke:none;stroke-width:13.6789999;stroke-linecap:round;stroke-linejoin:round;stroke-miterlimit:0;stroke-dasharray:none;stroke-dashoffset:0;stroke-opacity:1;color-rendering:auto;image-rendering:auto;shape-rendering:auto;text-rendering:auto;enable-background:accumulate" />
      <g
         id="g5896"
         transform="translate(1073.5483,-14.451621)"
         style="fill:#007f3f;fill-opacity:1">
        <path
           id="rect5898"
           d="M-883.086248866 746.198272355C-883.086248866 746.198272355 -872.58862529 652.98262183 -872.58862529 652.98262183C-872.172453237 649.287142721 -869.664969659 644.944053789 -866.958930773 643.231685417C-866.958930773 643.231685417 -798.700729846 600.03822467 -798.700729846 600.03822467C-795.801060251 598.203327718 -793.720345069 599.750223436 -794.043521701 603.520668192C-794.043521701 603.520668192 -802.206560689 698.757404154 -802.206560689 698.757404154C-802.553804307 702.808634191 -805.257911696 707.492293131 -808.2608475 709.243691338C-808.2608475 709.243691338 -878.853074245 750.415100709 -878.853074245 750.415100709C-881.647819582 752.045076269 -883.532190385 750.15809511 -883.086248866 746.198272355C-883.086248866 746.198272355 -883.086248866 746.198272355 -883.086248866 746.198272355"
           style="color:#000000;clip-rule:nonzero;display:inline;overflow:visible;visibility:visible;opacity:1;isolation:auto;mix-blend-mode:normal;color-interpolation:sRGB;color-interpolation-filters:linearRGB;solid-color:#000000;solid-opacity:1;fill:#007f3f;fill-opacity:1;fill-rule:nonzero;stroke:none;stroke-width:1;stroke-linecap:round;stroke-linejoin:round;stroke-miterlimit:0;stroke-dasharray:none;stroke-dashoffset:0;stroke-opacity:1;color-rendering:auto;image-rendering:auto;shape-rendering:auto;text-rendering:auto;enable-background:accumulate" />
        <path
           id="rect5900"
           d="M-672.476144461 622.662605614C-672.476144461 622.662605614 -668.488061021 524.455034673 -668.488061021 524.455034673C-668.330517155 520.575476836 -665.569655784 515.793522297 -662.288655712 513.717321256C-662.288655712 513.717321256 -579.232468405 461.159766011 -579.232468405 461.159766011C-575.691561105 458.919096928 -572.847002792 460.284437444 -572.864389953 464.238250062C-572.864389953 464.238250062 -573.305266335 564.49283933 -573.305266335 564.49283933C-573.324093308 568.774063141 -576.325233754 573.97219557 -580.023523807 576.129144299C-580.023523807 576.129144299 -666.626084085 626.638238944 -666.626084085 626.638238944C-670.041468093 628.630188761 -672.646164548 626.849393587 -672.476144461 622.662605614C-672.476144461 622.662605614 -672.476144461 622.662605614 -672.476144461 622.662605614"
           style="color:#000000;clip-rule:nonzero;display:inline;overflow:visible;visibility:visible;opacity:1;isolation:auto;mix-blend-mode:normal;color-interpolation:sRGB;color-interpolation-filters:linearRGB;solid-color:#000000;solid-opacity:1;fill:#007f3f;fill-opacity:1;fill-rule:nonzero;stroke:none;stroke-width:1;stroke-linecap:round;stroke-linejoin:round;stroke-miterlimit:0;stroke-dasharray:none;stroke-dashoffset:0;stroke-opacity:1;color-rendering:auto;image-rendering:auto;shape-rendering:auto;text-rendering:auto;enable-background:accumulate" />
        <path
           id="rect5902"
           d="M-772.51212305 554.678220296C-772.51212305 554.678220296 -765.624545069 467.715355732 -765.624545069 467.715355732C-765.35149113 464.267764606 -762.844007634 459.924675816 -759.994857913 457.964425557C-759.994857913 457.964425557 -688.126611566 408.518182883 -688.126611566 408.518182883C-685.073585503 406.417663177 -682.745047912 407.535321827 -682.913750009 411.038208684C-682.913750009 411.038208684 -687.174954747 499.516765448 -687.174954747 499.516765448C-687.356220101 503.280512523 -690.060331193 507.964173346 -693.229246285 510.003057806C-693.229246285 510.003057806 -767.723307131 557.932642103 -767.723307131 557.932642103C-770.672519431 559.830169475 -772.804708982 558.372423229 -772.51212305 554.678220296C-772.51212305 554.678220296 -772.51212305 554.678220296 -772.51212305 554.678220296"
           style="color:#000000;clip-rule:nonzero;display:inline;overflow:visible;visibility:visible;opacity:1;isolation:auto;mix-blend-mode:normal;color-interpolation:sRGB;color-interpolation-filters:linearRGB;solid-color:#000000;solid-opacity:1;fill:#007f3f;fill-opacity:1;fill-rule:nonzero;stroke:none;stroke-width:1;stroke-linecap:round;stroke-linejoin:round;stroke-miterlimit:0;stroke-dasharray:none;stroke-dashoffset:0;stroke-opacity:1;color-rendering:auto;image-rendering:auto;shape-rendering:auto;text-rendering:auto;enable-background:accumulate" />
        <path
           id="rect5904"
           d="M-855.190244094 498.490377994C-855.190244094 498.490377994 -846.41024418 420.526694345 -846.41024418 420.526694345C-846.061138254 417.426741701 -843.764435954 413.448736672 -841.254367625 411.596437915C-841.254367625 411.596437915 -778.125855011 365.010907108 -778.125855011 365.010907108C-775.452016971 363.037754894 -773.510839925 363.96949175 -773.780170467 367.111723674C-773.780170467 367.111723674 -780.561548428 446.228864155 -780.561548428 446.228864155C-780.849100855 449.583687603 -783.309678805 453.84553985 -786.071307162 455.772008735C-786.071307162 455.772008735 -851.198053379 501.203411486 -851.198053379 501.203411486C-853.784623841 503.007762712 -855.562119355 501.792515292 -855.190244094 498.490377994C-855.190244094 498.490377994 -855.190244094 498.490377994 -855.190244094 498.490377994"
           style="color:#000000;clip-rule:nonzero;display:inline;overflow:visible;visibility:visible;opacity:1;isolation:auto;mix-blend-mode:normal;color-interpolation:sRGB;color-interpolation-filters:linearRGB;solid-color:#000000;solid-opacity:1;fill:#007f3f;fill-opacity:1;fill-rule:nonzero;stroke:none;stroke-width:1;stroke-linecap:round;stroke-linejoin:round;stroke-miterlimit:0;stroke-dasharray:none;stroke-dashoffset:0;stroke-opacity:1;color-rendering:auto;image-rendering:auto;shape-rendering:auto;text-rendering:auto;enable-background:accumulate" />
        <path
           id="rect5906"
           d="M-661.938008732 363.158328C-661.938008732 363.158328 -658.660475586 282.448239097 -658.660475586 282.448239097C-658.530539731 279.248535553 -656.023058129 274.905448096 -653.030786916 272.697308905C-653.030786916 272.697308905 -577.552497119 216.998290362 -577.552497119 216.998290362C-574.346113132 214.632147176 -571.769757515 215.32057209 -571.783985096 218.555901471C-571.783985096 218.555901471 -572.143356069 300.276289918 -572.143356069 300.276289918C-572.158643179 303.752554502 -574.862753471 308.436214694 -578.197649365 310.762586075C-578.197649365 310.762586075 -656.593542443 365.450338793 -656.593542443 365.450338793C-659.697232738 367.615424752 -662.077239111 366.586911557 -661.938008732 363.158328C-661.938008732 363.158328 -661.938008732 363.158328 -661.938008732 363.158328"
           style="color:#000000;clip-rule:nonzero;display:inline;overflow:visible;visibility:visible;opacity:1;isolation:auto;mix-blend-mode:normal;color-interpolation:sRGB;color-interpolation-filters:linearRGB;solid-color:#000000;solid-opacity:1;fill:#007f3f;fill-opacity:1;fill-rule:nonzero;stroke:none;stroke-width:1;stroke-linecap:round;stroke-linejoin:round;stroke-miterlimit:0;stroke-dasharray:none;stroke-dashoffset:0;stroke-opacity:1;color-rendering:auto;image-rendering:auto;shape-rendering:auto;text-rendering:auto;enable-background:accumulate" />
      </g>
    </g>
    <g
       id="g7043">
      <path
         id="rect5908"
         d="M517.819686017 184.906597054C517.819686017 184.906597054 612.484002087 255.176642958 612.484002087 255.176642958C615.439205489 257.370313048 617.92567014 261.676976824 618.066395045 264.845630795C618.066395045 264.845630795 622.574217679 366.34671239 622.574217679 366.34671239C622.727574005 369.799783669 620.370389983 370.867807566 617.280972688 368.727396228C617.280972688 368.727396228 518.109893202 300.019648859 518.109893202 300.019648859C514.729019645 297.677310675 512.000028295 292.950582253 512.000028661 289.437053441C512.000028661 289.437053441 512.000039397 186.375527014 512.000039397 186.375527014C512.000039731 183.16489027 514.599224499 182.516023835 517.819686017 184.906597054C517.819686017 184.906597054 517.819686017 184.906597054 517.819686017 184.906597054"
         style="color:#000000;clip-rule:nonzero;display:inline;overflow:visible;visibility:visible;opacity:1;isolation:auto;mix-blend-mode:normal;color-interpolation:sRGB;color-interpolation-filters:linearRGB;solid-color:#000000;solid-opacity:1;fill:#000000;fill-opacity:1;fill-rule:nonzero;stroke:none;stroke-width:13.6789999;stroke-linecap:round;stroke-linejoin:round;stroke-miterlimit:0;stroke-dasharray:none;stroke-dashoffset:0;stroke-opacity:1;color-rendering:auto;image-rendering:auto;shape-rendering:auto;text-rendering:auto;enable-background:accumulate" />
      <path
         id="rect5910"
         d="M518.109893261 300.019671966C518.109893261 300.019671966 617.280973649 368.727418975 617.280973649 368.727418975C620.370390971 370.867830302 622.975391402 375.379802201 623.129863308 378.857992636C623.129863308 378.857992636 628.088415684 490.507999766 628.088415684 490.507999766C628.257460498 494.314323331 625.795274443 495.728435869 622.558908048 493.663232948C622.558908048 493.663232948 518.430564255 427.216442459 518.430564255 427.216442459C514.872460637 424.94593131 512.000015064 419.970735372 512.00001547 416.078405634C512.00001547 416.078405634 512.000027335 302.169695666 512.000027335 302.169695666C512.000027704 298.629325078 514.729019671 297.677333793 518.109893261 300.019671966C518.109893261 300.019671966 518.109893261 300.019671966 518.109893261 300.019671966"
         style="color:#000000;clip-rule:nonzero;display:inline;overflow:visible;visibility:visible;opacity:1;isolation:auto;mix-blend-mode:normal;color-interpolation:sRGB;color-interpolation-filters:linearRGB;solid-color:#000000;solid-opacity:1;fill:#000000;fill-opacity:1;fill-rule:nonzero;stroke:none;stroke-width:13.6789999;stroke-linecap:round;stroke-linejoin:round;stroke-miterlimit:0;stroke-dasharray:none;stroke-dashoffset:0;stroke-opacity:1;color-rendering:auto;image-rendering:auto;shape-rendering:auto;text-rendering:auto;enable-background:accumulate" />
      <path
         id="rect5912"
         d="M518.43056419 427.216416863C518.43056419 427.216416863 622.558906989 493.663207863 622.558906989 493.663207863C625.795273354 495.728410801 628.53067704 500.466245606 628.701013274 504.30164762C628.701013274 504.30164762 634.181450959 627.702765578 634.181450959 627.702765578C634.368720965 631.919459478 631.791904604 633.748520012 628.393957692 631.786714915C628.393957692 631.786714915 518.786761487 568.504985736 518.786761487 568.504985736C515.031818733 566.337069042 512.000000365 561.085836136 512.000000816 556.749970872C512.000000816 556.749970872 512.000014 430.186558749 512.000014 430.186558749C512.000014409 426.262922203 514.872460608 424.945905697 518.43056419 427.216416863C518.43056419 427.216416863 518.43056419 427.216416863 518.43056419 427.216416863"
         style="color:#000000;clip-rule:nonzero;display:inline;overflow:visible;visibility:visible;opacity:1;isolation:auto;mix-blend-mode:normal;color-interpolation:sRGB;color-interpolation-filters:linearRGB;solid-color:#000000;solid-opacity:1;fill:#000000;fill-opacity:1;fill-rule:nonzero;stroke:none;stroke-width:13.6789999;stroke-linecap:round;stroke-linejoin:round;stroke-miterlimit:0;stroke-dasharray:none;stroke-dashoffset:0;stroke-opacity:1;color-rendering:auto;image-rendering:auto;shape-rendering:auto;text-rendering:auto;enable-background:accumulate" />
      <path
         id="rect5914"
         d="M623.11592684 263.068802027C623.11592684 263.068802027 709.549293093 327.228950924 709.549293093 327.228950924C712.252700741 329.235711099 714.630946763 333.354936344 714.888416145 336.476582925C714.888416145 336.476582925 723.120176788 436.281255818 723.120176788 436.281255818C723.399686365 439.670125238 721.364822297 440.838810978 718.550343217 438.888882445C718.550343217 438.888882445 628.393929961 376.426679777 628.393929961 376.426679777C625.32675719 374.301679898 622.727641218 369.799830318 622.574284805 366.346759079C622.574284805 366.346759079 618.066459565 264.845678528 618.066459565 264.845678528C617.925734578 261.677024586 620.181034814 260.890209226 623.11592684 263.068802027C623.11592684 263.068802027 623.11592684 263.068802027 623.11592684 263.068802027"
         style="color:#000000;clip-rule:nonzero;display:inline;overflow:visible;visibility:visible;opacity:1;isolation:auto;mix-blend-mode:normal;color-interpolation:sRGB;color-interpolation-filters:linearRGB;solid-color:#000000;solid-opacity:1;fill:#000000;fill-opacity:1;fill-rule:nonzero;stroke:none;stroke-width:13.6789999;stroke-linecap:round;stroke-linejoin:round;stroke-miterlimit:0;stroke-dasharray:none;stroke-dashoffset:0;stroke-opacity:1;color-rendering:auto;image-rendering:auto;shape-rendering:auto;text-rendering:auto;enable-background:accumulate" />
      <path
         id="rect5916"
         d="M628.393931018 376.42670248C628.393931018 376.42670248 718.550345016 438.888904767 718.550345016 438.888904767C721.364824119 440.838833288 723.851287835 445.145495445 724.132737946 448.557892553C724.132737946 448.557892553 733.148392819 557.86676639 733.148392819 557.86676639C733.455105796 561.585459104 731.345739714 563.082716138 728.410793658 561.209856755C728.410793658 561.209856755 634.198350293 501.090639858 634.198350293 501.090639858C630.986450722 499.041049803 628.257530893 494.314368347 628.088485981 490.508044837C628.088485981 490.508044837 623.129930754 378.858039179 623.129930754 378.858039179C622.975458758 375.379848784 625.326758221 374.301702614 628.393931018 376.42670248C628.393931018 376.42670248 628.393931018 376.42670248 628.393931018 376.42670248"
         style="color:#000000;clip-rule:nonzero;display:inline;overflow:visible;visibility:visible;opacity:1;isolation:auto;mix-blend-mode:normal;color-interpolation:sRGB;color-interpolation-filters:linearRGB;solid-color:#000000;solid-opacity:1;fill:#000000;fill-opacity:1;fill-rule:nonzero;stroke:none;stroke-width:13.6789999;stroke-linecap:round;stroke-linejoin:round;stroke-miterlimit:0;stroke-dasharray:none;stroke-dashoffset:0;stroke-opacity:1;color-rendering:auto;image-rendering:auto;shape-rendering:auto;text-rendering:auto;enable-background:accumulate" />
      <path
         id="rect5918"
         d="M634.198349128 501.090614834C634.198349128 501.090614834 728.410791683 561.209832251 728.410791683 561.209832251C731.345737715 563.082691651 733.950737072 567.594661691 734.259681203 571.340405672C734.259681203 571.340405672 744.176795993 691.578886917 744.176795993 691.578886917C744.514886191 695.678007756 742.325919389 697.56534802 739.259888552 695.795174712C739.259888552 695.795174712 640.612073183 638.840845504 640.612073183 638.840845504C637.241165151 636.894651307 634.368794856 631.919502249 634.181524742 627.702808425C634.181524742 627.702808425 628.701083923 504.301692488 628.701083923 504.301692488C628.530747591 500.466290531 630.986449586 499.041024762 634.198349128 501.090614834C634.198349128 501.090614834 634.198349128 501.090614834 634.198349128 501.090614834"
         style="color:#000000;clip-rule:nonzero;display:inline;overflow:visible;visibility:visible;opacity:1;isolation:auto;mix-blend-mode:normal;color-interpolation:sRGB;color-interpolation-filters:linearRGB;solid-color:#000000;solid-opacity:1;fill:#000000;fill-opacity:1;fill-rule:nonzero;stroke:none;stroke-width:13.6789999;stroke-linecap:round;stroke-linejoin:round;stroke-miterlimit:0;stroke-dasharray:none;stroke-dashoffset:0;stroke-opacity:1;color-rendering:auto;image-rendering:auto;shape-rendering:auto;text-rendering:auto;enable-background:accumulate" />
      <path
         id="rect5920"
         d="M719.276618355 334.44961887C719.276618355 334.44961887 798.507885845 393.263594767 798.507885845 393.263594767C800.990381579 395.106370339 803.269419983 399.053780472 803.624061823 402.125065734C803.624061823 402.125065734 814.942823563 500.148316566 814.942823563 500.148316566C815.326480234 503.470877366 813.568027289 504.719072724 810.993330829 502.935270482C810.993330829 502.935270482 728.675801535 445.904006568 728.675801535 445.904006568C725.880727311 443.967522115 723.399563868 439.67004022 723.120054437 436.281170716C723.120054437 436.281170716 714.888298107 336.476495598 714.888298107 336.476495598C714.630828861 333.354848954 716.591042045 332.456095034 719.276618355 334.44961887C719.276618355 334.44961887 719.276618355 334.44961887 719.276618355 334.44961887"
         style="color:#000000;clip-rule:nonzero;display:inline;overflow:visible;visibility:visible;opacity:1;isolation:auto;mix-blend-mode:normal;color-interpolation:sRGB;color-interpolation-filters:linearRGB;solid-color:#000000;solid-opacity:1;fill:#000000;fill-opacity:1;fill-rule:nonzero;stroke:none;stroke-width:13.6789999;stroke-linecap:round;stroke-linejoin:round;stroke-miterlimit:0;stroke-dasharray:none;stroke-dashoffset:0;stroke-opacity:1;color-rendering:auto;image-rendering:auto;shape-rendering:auto;text-rendering:auto;enable-background:accumulate" />
      <path
         id="rect5922"
         d="M728.675803413 445.904028845C728.675803413 445.904028845 810.993333321 502.935292365 810.993333321 502.935292365C813.568029798 504.719094594 815.946258255 508.838306938 816.332462322 512.182928815C816.332462322 512.182928815 828.680103116 619.116524428 828.680103116 619.116524428C829.099367477 622.747456553 827.290321493 624.307252049 824.616542986 622.601049936C824.616542986 622.601049936 738.967910917 567.946606166 738.967910917 567.946606166C736.054160405 566.087272167 733.454978082 561.585377434 733.148265264 557.866684608C733.148265264 557.866684608 724.132615066 448.557807756 724.132615066 448.557807756C723.851165103 445.145410564 725.880729167 443.967544404 728.675803413 445.904028845C728.675803413 445.904028845 728.675803413 445.904028845 728.675803413 445.904028845"
         style="color:#000000;clip-rule:nonzero;display:inline;overflow:visible;visibility:visible;opacity:1;isolation:auto;mix-blend-mode:normal;color-interpolation:sRGB;color-interpolation-filters:linearRGB;solid-color:#000000;solid-opacity:1;fill:#000000;fill-opacity:1;fill-rule:nonzero;stroke:none;stroke-width:13.6789999;stroke-linecap:round;stroke-linejoin:round;stroke-miterlimit:0;stroke-dasharray:none;stroke-dashoffset:0;stroke-opacity:1;color-rendering:auto;image-rendering:auto;shape-rendering:auto;text-rendering:auto;enable-background:accumulate" />
      <g
         id="g5924"
         transform="translate(2097.5483,-78.451621)"
         style="fill:#bf0000;fill-opacity:1">
        <path
           id="rect5926"
           d="M-1568.7459962 396.991020806C-1568.7459962 396.991020806 -1489.65978264 451.403309687 -1489.65978264 451.403309687C-1486.52975478 453.556807401 -1483.90167417 458.108776362 -1483.75893124 461.62385511C-1483.75893124 461.62385511 -1480.15222403 550.439880633 -1480.15222403 550.439880633C-1479.99874788 554.219267522 -1482.48609795 555.589814625 -1485.73822428 553.49739214C-1485.73822428 553.49739214 -1568.03346021 500.548525961 -1568.03346021 500.548525961C-1571.54061371 498.292018647 -1574.38551105 493.364515431 -1574.40243046 489.51709295C-1574.40243046 489.51709295 -1574.79943774 399.238820157 -1574.79943774 399.238820157C-1574.81512646 395.671252159 -1572.11129976 394.675650513 -1568.7459962 396.991020806C-1568.7459962 396.991020806 -1568.7459962 396.991020806 -1568.7459962 396.991020806"
           style="color:#000000;clip-rule:nonzero;display:inline;overflow:visible;visibility:visible;opacity:1;isolation:auto;mix-blend-mode:normal;color-interpolation:sRGB;color-interpolation-filters:linearRGB;solid-color:#000000;solid-opacity:1;fill:#bf0000;fill-opacity:1;fill-rule:nonzero;stroke:none;stroke-width:1;stroke-linecap:round;stroke-linejoin:round;stroke-miterlimit:0;stroke-dasharray:none;stroke-dashoffset:0;stroke-opacity:1;color-rendering:auto;image-rendering:auto;shape-rendering:auto;text-rendering:auto;enable-background:accumulate" />
        <path
           id="rect5928"
           d="M-1464.7097478 358.360528164C-1464.7097478 358.360528164 -1395.81954335 409.197884512 -1395.81954335 409.197884512C-1393.08422199 411.216408155 -1390.68675293 415.368946206 -1390.43714974 418.520445459C-1390.43714974 418.520445459 -1384.15075031 497.89276105 -1384.15075031 497.89276105C-1383.88411056 501.259364631 -1385.93977089 502.392042922 -1388.76727329 500.41962137C-1388.76727329 500.41962137 -1460.06787253 450.681435966 -1460.06787253 450.681435966C-1463.09584456 448.569169928 -1465.67245172 444.106362454 -1465.83703962 440.68890482C-1465.83703962 440.68890482 -1469.71258177 360.218220975 -1469.71258177 360.218220975C-1469.86626962 357.027088966 -1467.63170356 356.204278122 -1464.7097478 358.360528164C-1464.7097478 358.360528164 -1464.7097478 358.360528164 -1464.7097478 358.360528164"
           style="color:#000000;clip-rule:nonzero;display:inline;overflow:visible;visibility:visible;opacity:1;isolation:auto;mix-blend-mode:normal;color-interpolation:sRGB;color-interpolation-filters:linearRGB;solid-color:#000000;solid-opacity:1;fill:#bf0000;fill-opacity:1;fill-rule:nonzero;stroke:none;stroke-width:1;stroke-linecap:round;stroke-linejoin:round;stroke-miterlimit:0;stroke-dasharray:none;stroke-dashoffset:0;stroke-opacity:1;color-rendering:auto;image-rendering:auto;shape-rendering:auto;text-rendering:auto;enable-background:accumulate" />
        <path
           id="rect5930"
           d="M-1452.65761275 598.061938705C-1452.65761275 598.061938705 -1377.5440151 645.59345852 -1377.5440151 645.59345852C-1374.57121311 647.474633186 -1371.94313274 652.026599602 -1371.6431649 655.814004728C-1371.6431649 655.814004728 -1364.06384426 751.510792153 -1364.06384426 751.510792153C-1363.74132154 755.58297613 -1365.95545134 757.426753609 -1369.03723842 755.629367215C-1369.03723842 755.629367215 -1447.02203 710.146405604 -1447.02203 710.146405604C-1450.34548648 708.2080707 -1453.19038357 703.280568753 -1453.39100268 699.114969233C-1453.39100268 699.114969233 -1458.0984518 601.370799239 -1458.0984518 601.370799239C-1458.28447853 597.508191903 -1455.85387219 596.039361248 -1452.65761275 598.061938705C-1452.65761275 598.061938705 -1452.65761275 598.061938705 -1452.65761275 598.061938705"
           style="color:#000000;clip-rule:nonzero;display:inline;overflow:visible;visibility:visible;opacity:1;isolation:auto;mix-blend-mode:normal;color-interpolation:sRGB;color-interpolation-filters:linearRGB;solid-color:#000000;solid-opacity:1;fill:#bf0000;fill-opacity:1;fill-rule:nonzero;stroke:none;stroke-width:1;stroke-linecap:round;stroke-linejoin:round;stroke-miterlimit:0;stroke-dasharray:none;stroke-dashoffset:0;stroke-opacity:1;color-rendering:auto;image-rendering:auto;shape-rendering:auto;text-rendering:auto;enable-background:accumulate" />
        <path
           id="rect5932"
           d="M-1359.14981048 541.195777779C-1359.14981048 541.195777779 -1293.55454416 586.326128815 -1293.55454416 586.326128815C-1290.95005004 588.118052845 -1288.55258088 592.270591072 -1288.17215202 595.648681277C-1288.17215202 595.648681277 -1278.59081163 680.728010476 -1278.59081163 680.728010476C-1278.18441604 684.336677204 -1280.01427459 685.860459821 -1282.70104991 684.131784944C-1282.70104991 684.131784944 -1350.45296075 640.540113805 -1350.45296075 640.540113805C-1353.33022817 638.688876052 -1355.90683553 634.226064114 -1356.22213036 630.547575573C-1356.22213036 630.547575573 -1363.64636353 543.93036924 -1363.64636353 543.93036924C-1363.94077703 540.495499455 -1361.9320125 539.281588521 -1359.14981048 541.195777779C-1359.14981048 541.195777779 -1359.14981048 541.195777779 -1359.14981048 541.195777779"
           style="color:#000000;clip-rule:nonzero;display:inline;overflow:visible;visibility:visible;opacity:1;isolation:auto;mix-blend-mode:normal;color-interpolation:sRGB;color-interpolation-filters:linearRGB;solid-color:#000000;solid-opacity:1;fill:#bf0000;fill-opacity:1;fill-rule:nonzero;stroke:none;stroke-width:1;stroke-linecap:round;stroke-linejoin:round;stroke-miterlimit:0;stroke-dasharray:none;stroke-dashoffset:0;stroke-opacity:1;color-rendering:auto;image-rendering:auto;shape-rendering:auto;text-rendering:auto;enable-background:accumulate" />
      </g>
      <path
         id="rect5934"
         d="M738.967908856 567.946581723C738.967908856 567.946581723 824.616540263 622.601026013 824.616540263 622.601026013C827.29031875 624.307228143 829.776764145 628.613877721 830.198939291 632.270017961C830.198939291 632.270017961 843.722420804 749.386682395 843.722420804 749.386682395C844.182490551 753.370999168 842.320959985 755.297497891 839.540460522 753.69217616C839.540460522 753.69217616 750.286527592 702.161406216 750.286527592 702.161406216C747.243741873 700.40465348 744.514752802 695.677930543 744.176662777 691.578809556C744.176662777 691.578809556 734.259553073 571.340324299 734.259553073 571.340324299C733.950609102 567.594580203 736.054158367 566.087247707 738.967908856 567.946581723C738.967908856 567.946581723 738.967908856 567.946581723 738.967908856 567.946581723"
         style="color:#000000;clip-rule:nonzero;display:inline;overflow:visible;visibility:visible;opacity:1;isolation:auto;mix-blend-mode:normal;color-interpolation:sRGB;color-interpolation-filters:linearRGB;solid-color:#000000;solid-opacity:1;fill:#000000;fill-opacity:1;fill-rule:nonzero;stroke:none;stroke-width:13.6789999;stroke-linecap:round;stroke-linejoin:round;stroke-miterlimit:0;stroke-dasharray:none;stroke-dashoffset:0;stroke-opacity:1;color-rendering:auto;image-rendering:auto;shape-rendering:auto;text-rendering:auto;enable-background:accumulate" />
      <g
         id="g5936"
         transform="translate(2097.5483,-78.451621)"
         style="fill:#ff7f00;fill-opacity:1">
        <path
           id="rect5938"
           d="M-1569.54409385 280.998281245C-1569.54409385 280.998281245 -1494.06577988 336.69731675 -1494.06577988 336.69731675C-1491.07348694 338.90547194 -1488.56600322 343.248560968 -1488.43606812 346.448243613C-1488.43606812 346.448243613 -1485.15853367 427.158311414 -1485.15853367 427.158311414C-1485.01930107 430.586947498 -1487.39930979 431.615451838 -1490.50302262 429.450350201C-1490.50302262 429.450350201 -1568.89894082 374.762581013 -1568.89894082 374.762581013C-1572.23378734 372.436244118 -1574.93790144 367.752588841 -1574.95318888 364.27627099C-1574.95318888 364.27627099 -1575.31256196 282.555903751 -1575.31256196 282.555903751C-1575.32678953 279.320595494 -1572.75043037 278.632173123 -1569.54409385 280.998281245C-1569.54409385 280.998281245 -1569.54409385 280.998281245 -1569.54409385 280.998281245"
           style="color:#000000;clip-rule:nonzero;display:inline;overflow:visible;visibility:visible;opacity:1;isolation:auto;mix-blend-mode:normal;color-interpolation:sRGB;color-interpolation-filters:linearRGB;solid-color:#000000;solid-opacity:1;fill:#ff7f00;fill-opacity:1;fill-rule:nonzero;stroke:none;stroke-width:1;stroke-linecap:round;stroke-linejoin:round;stroke-miterlimit:0;stroke-dasharray:none;stroke-dashoffset:0;stroke-opacity:1;color-rendering:auto;image-rendering:auto;shape-rendering:auto;text-rendering:auto;enable-background:accumulate" />
        <path
           id="rect5940"
           d="M-1567.86412016 525.15982029C-1567.86412016 525.15982029 -1484.80790459 577.717390157 -1484.80790459 577.717390157C-1481.52688064 579.793606181 -1478.76601699 584.575559754 -1478.60847415 588.455089847C-1478.60847415 588.455089847 -1474.62038891 686.662640273 -1474.62038891 686.662640273C-1474.45036617 690.849490712 -1477.05506509 692.630280291 -1480.47047395 690.638316125C-1480.47047395 690.638316125 -1567.07306376 640.129208032 -1567.07306376 640.129208032C-1570.77129914 637.972291352 -1573.77244389 632.774160993 -1573.79127126 628.492873287C-1573.79127126 628.492873287 -1574.23215025 528.238304564 -1574.23215025 528.238304564C-1574.24953739 524.284520202 -1571.40497511 522.919184472 -1567.86412016 525.15982029C-1567.86412016 525.15982029 -1567.86412016 525.15982029 -1567.86412016 525.15982029"
           style="color:#000000;clip-rule:nonzero;display:inline;overflow:visible;visibility:visible;opacity:1;isolation:auto;mix-blend-mode:normal;color-interpolation:sRGB;color-interpolation-filters:linearRGB;solid-color:#000000;solid-opacity:1;fill:#ff7f00;fill-opacity:1;fill-rule:nonzero;stroke:none;stroke-width:1;stroke-linecap:round;stroke-linejoin:round;stroke-miterlimit:0;stroke-dasharray:none;stroke-dashoffset:0;stroke-opacity:1;color-rendering:auto;image-rendering:auto;shape-rendering:auto;text-rendering:auto;enable-background:accumulate" />
        <path
           id="rect5942"
           d="M-1458.96991904 472.518313791C-1458.96991904 472.518313791 -1387.1016531 521.964565824 -1387.1016531 521.964565824C-1384.25247837 523.924833128 -1381.74499468 528.267922096 -1381.47194296 531.715483378C-1381.47194296 531.715483378 -1374.58436235 618.678335135 -1374.58436235 618.678335135C-1374.29177189 622.372593279 -1376.4239616 623.830336706 -1379.37319979 621.932792866C-1379.37319979 621.932792866 -1453.86728091 574.003200244 -1453.86728091 574.003200244C-1457.03614905 571.964346195 -1459.74026298 567.280686675 -1459.92153121 563.516883328C-1459.92153121 563.516883328 -1464.18273928 475.038339135 -1464.18273928 475.038339135C-1464.35144007 471.53548258 -1462.02289987 470.417825383 -1458.96991904 472.518313791C-1458.96991904 472.518313791 -1458.96991904 472.518313791 -1458.96991904 472.518313791"
           style="color:#000000;clip-rule:nonzero;display:inline;overflow:visible;visibility:visible;opacity:1;isolation:auto;mix-blend-mode:normal;color-interpolation:sRGB;color-interpolation-filters:linearRGB;solid-color:#000000;solid-opacity:1;fill:#ff7f00;fill-opacity:1;fill-rule:nonzero;stroke:none;stroke-width:1;stroke-linecap:round;stroke-linejoin:round;stroke-miterlimit:0;stroke-dasharray:none;stroke-dashoffset:0;stroke-opacity:1;color-rendering:auto;image-rendering:auto;shape-rendering:auto;text-rendering:auto;enable-background:accumulate" />
        <path
           id="rect5944"
           d="M-1368.97075468 429.010881843C-1368.97075468 429.010881843 -1305.84221969 475.596428433 -1305.84221969 475.596428433C-1303.33213473 477.448739431 -1301.03543227 481.426744608 -1300.68632858 484.526677008C-1300.68632858 484.526677008 -1291.90632991 562.490340488 -1291.90632991 562.490340488C-1291.53444891 565.792528383 -1293.31194531 567.007768615 -1295.8985329 565.203405471C-1295.8985329 565.203405471 -1361.02530225 519.771987461 -1361.02530225 519.771987461C-1363.78688857 517.845547941 -1366.24747211 513.583698649 -1366.53502899 510.22882379C-1366.53502899 510.22882379 -1373.31640619 431.111703662 -1373.31640619 431.111703662C-1373.58573501 427.969492253 -1371.64455202 427.037759699 -1368.97075468 429.010881843C-1368.97075468 429.010881843 -1368.97075468 429.010881843 -1368.97075468 429.010881843"
           style="color:#000000;clip-rule:nonzero;display:inline;overflow:visible;visibility:visible;opacity:1;isolation:auto;mix-blend-mode:normal;color-interpolation:sRGB;color-interpolation-filters:linearRGB;solid-color:#000000;solid-opacity:1;fill:#ff7f00;fill-opacity:1;fill-rule:nonzero;stroke:none;stroke-width:1;stroke-linecap:round;stroke-linejoin:round;stroke-miterlimit:0;stroke-dasharray:none;stroke-dashoffset:0;stroke-opacity:1;color-rendering:auto;image-rendering:auto;shape-rendering:auto;text-rendering:auto;enable-background:accumulate" />
        <path
           id="rect5946"
           d="M-1348.3958747 664.038260217C-1348.3958747 664.038260217 -1280.13764838 707.231734348 -1280.13764838 707.231734348C-1277.43159153 708.944113982 -1274.92410801 713.287200724 -1274.50793888 716.982653404C-1274.50793888 716.982653404 -1264.01031624 810.198284622 -1264.01031624 810.198284622C-1263.56436802 814.158166461 -1265.4487394 816.045143529 -1268.24350329 814.415157269C-1268.24350329 814.415157269 -1338.83575636 773.243735621 -1338.83575636 773.243735621C-1341.83864651 771.492364176 -1344.54276034 766.80870557 -1344.89000919 762.757415071C-1344.89000919 762.757415071 -1353.0530477 667.520698525 -1353.0530477 667.520698525C-1353.37622207 663.750280721 -1351.2955002 662.20339128 -1348.3958747 664.038260217C-1348.3958747 664.038260217 -1348.3958747 664.038260217 -1348.3958747 664.038260217"
           style="color:#000000;clip-rule:nonzero;display:inline;overflow:visible;visibility:visible;opacity:1;isolation:auto;mix-blend-mode:normal;color-interpolation:sRGB;color-interpolation-filters:linearRGB;solid-color:#000000;solid-opacity:1;fill:#ff7f00;fill-opacity:1;fill-rule:nonzero;stroke:none;stroke-width:1;stroke-linecap:round;stroke-linejoin:round;stroke-miterlimit:0;stroke-dasharray:none;stroke-dashoffset:0;stroke-opacity:1;color-rendering:auto;image-rendering:auto;shape-rendering:auto;text-rendering:auto;enable-background:accumulate" />
      </g>
    </g>
  </g>
</svg>
