<?xml version="1.0" encoding="UTF-8" standalone="no"?>
<svg
   xmlns:dc="http://purl.org/dc/elements/1.1/"
   xmlns:cc="http://creativecommons.org/ns#"
   xmlns:rdf="http://www.w3.org/1999/02/22-rdf-syntax-ns#"
   xmlns:svg="http://www.w3.org/2000/svg"
   xmlns="http://www.w3.org/2000/svg"
   xmlns:xlink="http://www.w3.org/1999/xlink"
   version="1.1"
   id="svg2"
   viewBox="0 0 4096.0001 4096.0001"
   height="4096"
   width="4096">
  <defs
     id="defs4" />
  <metadata
     id="metadata7">
    <rdf:RDF>
      <cc:Work
         rdf:about="">
        <dc:format>image/svg+xml</dc:format>
        <dc:type
           rdf:resource="http://purl.org/dc/dcmitype/StillImage" />
        <dc:title></dc:title>
      </cc:Work>
    </rdf:RDF>
  </metadata>
  <g
     transform="translate(0,3043.6378)"
     id="layer1">
    <rect
       ry="0"
       y="-3043.6377"
       x="0"
       height="4096"
       width="4096"
       id="rect4779"
       style="color:#000000;clip-rule:nonzero;display:inline;overflow:visible;visibility:visible;opacity:1;isolation:auto;mix-blend-mode:normal;color-interpolation:sRGB;color-interpolation-filters:linearRGB;solid-color:#000000;solid-opacity:1;fill:#147ce8;fill-opacity:1;fill-rule:nonzero;stroke:none;stroke-width:192;stroke-linecap:round;stroke-linejoin:round;stroke-miterlimit:4;stroke-dasharray:none;stroke-dashoffset:0;stroke-opacity:1;color-rendering:auto;image-rendering:auto;shape-rendering:auto;text-rendering:auto;enable-background:accumulate" />
    <circle
       r="1151.9999"
       cy="-995.63782"
       cx="2048"
       id="path4140"
       style="color:#000000;clip-rule:nonzero;display:inline;overflow:visible;visibility:visible;opacity:1;isolation:auto;mix-blend-mode:normal;color-interpolation:sRGB;color-interpolation-filters:linearRGB;solid-color:#000000;solid-opacity:1;fill:#ebcc19;fill-opacity:1;fill-rule:nonzero;stroke:none;stroke-width:1.77165353;stroke-linecap:butt;stroke-linejoin:miter;stroke-miterlimit:4;stroke-dasharray:none;stroke-dashoffset:0;stroke-opacity:1;color-rendering:auto;image-rendering:auto;shape-rendering:auto;text-rendering:auto;enable-background:accumulate" />
    <path
       id="path4183"
       d="m 1280,-611.63776 c 0,0 128.0001,511.999932 768,511.99996 639.9999,2.8e-5 767.9999,-511.99996 767.9999,-511.99996"
       style="fill:none;fill-rule:evenodd;stroke:#000000;stroke-width:128;stroke-linecap:round;stroke-linejoin:round;stroke-miterlimit:4;stroke-dasharray:none;stroke-opacity:1" />
    <rect
       ry="96.000015"
       y="-1379.6378"
       x="1536"
       height="768"
       width="192.00003"
       id="rect4210"
       style="color:#000000;clip-rule:nonzero;display:inline;overflow:visible;visibility:visible;opacity:1;isolation:auto;mix-blend-mode:normal;color-interpolation:sRGB;color-interpolation-filters:linearRGB;solid-color:#000000;solid-opacity:1;fill:#000000;fill-opacity:1;fill-rule:nonzero;stroke:none;stroke-width:1;stroke-linecap:round;stroke-linejoin:round;stroke-miterlimit:4;stroke-dasharray:none;stroke-dashoffset:0;stroke-opacity:1;color-rendering:auto;image-rendering:auto;shape-rendering:auto;text-rendering:auto;enable-background:accumulate" />
    <path
       transform="matrix(1,0,0,1.6666663,0,1730.4241)"
       d="m 2048,-2787.6377 110.8513,192 110.8512,192 -221.7025,0 -221.7025,0 110.8512,-192 z"
       id="path4772"
       style="color:#000000;clip-rule:nonzero;display:inline;overflow:visible;visibility:visible;opacity:1;isolation:auto;mix-blend-mode:normal;color-interpolation:sRGB;color-interpolation-filters:linearRGB;solid-color:#000000;solid-opacity:1;fill:#ebcc19;fill-opacity:1;fill-rule:nonzero;stroke:none;stroke-width:128;stroke-linecap:round;stroke-linejoin:round;stroke-miterlimit:4;stroke-dasharray:none;stroke-dashoffset:0;stroke-opacity:1;color-rendering:auto;image-rendering:auto;shape-rendering:auto;text-rendering:auto;enable-background:accumulate" />
    <use
       height="100%"
       width="100%"
       transform="matrix(0.8660254,0.5,-0.5,0.8660254,-223.43894,-1157.3902)"
       id="use4944"
       xlink:href="#path4772"
       y="0"
       x="0" />
    <use
       height="100%"
       width="100%"
       transform="matrix(0.5,0.8660254,-0.8660254,0.5,161.75237,-2271.439)"
       id="use4950"
       xlink:href="#path4772"
       y="0"
       x="0" />
    <use
       height="100%"
       width="100%"
       transform="matrix(0,1,-1,0,1052.3622,-3043.6379)"
       id="use4954"
       xlink:href="#path4772"
       y="0"
       x="0" />
    <use
       height="100%"
       width="100%"
       transform="matrix(-0.5,0.8660254,-0.8660254,-0.5,2209.7524,-3267.0768)"
       id="use4956"
       xlink:href="#path4772"
       y="0"
       x="0" />
    <use
       height="100%"
       width="100%"
       transform="matrix(-0.8660254,0.5,-0.5,-0.8660254,3323.8012,-2881.8855)"
       id="use4889"
       xlink:href="#path4772"
       y="0"
       x="0" />
    <use
       height="100%"
       width="100%"
       transform="matrix(-1,0,0,-1,4096.0001,-1991.2757)"
       id="use4891"
       xlink:href="#path4772"
       y="0"
       x="0" />
    <use
       height="100%"
       width="100%"
       transform="matrix(-0.8660254,-0.5,0.5,-0.8660254,4319.439,-833.88546)"
       id="use4893"
       xlink:href="#path4772"
       y="0"
       x="0" />
    <use
       height="100%"
       width="100%"
       transform="matrix(-0.5,-0.8660254,0.8660254,-0.5,3934.2477,280.16332)"
       id="use4895"
       xlink:href="#path4772"
       y="0"
       x="0" />
    <use
       height="100%"
       width="100%"
       transform="matrix(0,-1,1,0,3043.6379,1052.3622)"
       id="use4903"
       xlink:href="#path4772"
       y="0"
       x="0" />
    <use
       height="100%"
       width="100%"
       transform="matrix(0.5,-0.8660254,0.8660254,0.5,1886.2477,1275.8012)"
       id="use4905"
       xlink:href="#path4772"
       y="0"
       x="0" />
    <use
       height="100%"
       width="100%"
       transform="matrix(0.8660254,-0.5,0.5,0.8660254,772.1989,890.60985)"
       id="use4909"
       xlink:href="#path4772"
       y="0"
       x="0" />
    <use
       height="100%"
       width="100%"
       transform="translate(831.99994,-3.2617186e-5)"
       id="use4917"
       xlink:href="#rect4210"
       y="0"
       x="0" />
  </g>
</svg>
